<?xml version="1.0" encoding="iso-8859-1"?>
<!-- Uploaded to: SVG Repo, www.svgrepo.com, Generator: SVG Repo Mixer Tools -->
<svg fill="#000000" height="60px" width="60px" version="1.1" id="Layer_1" xmlns="http://www.w3.org/2000/svg"
	xmlns:xlink="http://www.w3.org/1999/xlink" viewBox="0 0 512 512" xml:space="preserve">
	<g>
		<g>
			<path d="M391.218,4.193c-66.601,0-120.784,54.183-120.784,120.783c0,20.073,16.33,36.404,36.404,36.404
			c20.072,0,36.403-16.331,36.403-36.404c0-26.454,21.521-47.976,47.976-47.976c26.453,0,47.975,21.522,47.975,47.976
			s-21.521,47.976-47.975,47.976H36.404C16.331,172.952,0,189.283,0,209.356c0,20.073,16.331,36.403,36.404,36.403h354.813
			c66.6,0,120.783-54.183,120.783-120.783S457.817,4.193,391.218,4.193z M391.217,225.362H36.404
			c-8.825,0-16.006-7.18-16.006-16.006c0-8.825,7.18-16.006,16.006-16.006v0.001h354.812c37.701,0,68.373-30.672,68.373-68.374
			c0-37.702-30.672-68.374-68.373-68.374c-37.702,0-68.374,30.673-68.374,68.374c0,8.825-7.18,16.006-16.005,16.006
			c-8.825,0-16.006-7.18-16.006-16.006c0-55.352,45.033-100.385,100.386-100.385c55.353,0,100.385,45.033,100.385,100.385
			S446.569,225.362,391.217,225.362z" />
		</g>
	</g>
	<g>
		<g>
			<path d="M391.217,266.24H36.404C16.331,266.24,0,282.57,0,302.644c0,20.074,16.331,36.404,36.404,36.404h354.812
			c26.453,0,47.975,21.522,47.975,47.976c0,26.454-21.521,47.976-47.975,47.976s-47.976-21.522-47.976-47.976
			c0-20.073-16.33-36.404-36.403-36.404s-36.404,16.331-36.404,36.404c0,66.6,54.183,120.783,120.784,120.783
			c66.6,0,120.783-54.184,120.783-120.784S457.817,266.24,391.217,266.24z M391.218,487.409
			c-55.353,0-100.386-45.033-100.386-100.385c0-8.825,7.18-16.006,16.006-16.006c8.824,0,16.005,7.18,16.005,16.007
			c0,37.702,30.672,68.374,68.374,68.374c37.701,0,68.373-30.672,68.373-68.374c0-37.702-30.672-68.374-68.373-68.374H36.404
			c-8.825,0-16.006-7.18-16.006-16.006s7.18-16.006,16.006-16.006h354.813c55.353,0,100.385,45.033,100.385,100.385
			C491.602,442.376,446.571,487.409,391.218,487.409z" />
		</g>
	</g>
	<g>
		<g>
			<path d="M171.621,133.12H24.874c-5.632,0-10.199,4.566-10.199,10.199s4.567,10.199,10.199,10.199h146.747
			c5.632,0,10.199-4.566,10.199-10.199S177.253,133.12,171.621,133.12z" />
		</g>
	</g>
	<g>
		<g>
			<path d="M222.982,133.12h-7.337c-5.632,0-10.199,4.566-10.199,10.199s4.567,10.199,10.199,10.199h7.337
			c5.632,0,10.199-4.566,10.199-10.199S228.614,133.12,222.982,133.12z" />
		</g>
	</g>
	<g>
		<g>
			<path d="M222.982,358.482H24.874c-5.632,0-10.199,4.566-10.199,10.199c0,5.633,4.567,10.199,10.199,10.199h198.108
			c5.632,0,10.199-4.566,10.199-10.199C233.181,363.048,228.614,358.482,222.982,358.482z" />
		</g>
	</g>
</svg>